# xmcd
#
# Track frame offsets:
#	150
#	11372
#	25298
#	36376
#	48714
#	62457
#	75077
#	85547
#	98624
#	111609
#	126538
#	139798
#	152807
#	166577
#	179960
#	193310
#	206073
#	218526
#	233049
#	248104
#
# Disc length: 3490 seconds
#
# Revision: 1
# Processed by: cddbd v1.5.2PL0 Copyright (c) Steve Scherf et al.
# Submitted via: audiograbber 1.83.01
#
DISCID=110da014
DTITLE=Various - Jukebox Favourites - Best Of Blues 3
DYEAR=1900
DGENRE=Blues
TTITLE0=Little Walter - I Just Keep Loving Her
TTITLE1=Sonny Boy Williamson - Good Morning Little School Girl
TTITLE2=J.B. Lenoir - I Don't Know
TTITLE3=John Lee Hooker - I'm In The Mood
TTITLE4=Lightnin' HopkinsMagic Sam - Mojo Hand
TTITLE5=Magic Sam - Roll Your Moneymaker
TTITLE6=Memphis Slim - The Comeback
TTITLE7=Muddy Waters - Got My Mojo Working
TTITLE8=Otis Rush - Three Times A Fool
TTITLE9=Robert Nighthawk - Anna Lee Blues
TTITLE10=Son House - Walking Blues (Death Letter Blues)
TTITLE11=Sonny Terry - Shakedown Blues
TTITLE12=T-Bone Walker - Call It Stormy Monday
TTITLE13=Big Maceo - Texas Blues
TTITLE14=Sammy Hill - Cryin' For You Blues
TTITLE15=Elmore James - Standing At The Crossroads
TTITLE16=Howlin' Wolf - Spoonful
TTITLE17=Arthur "Big Boy" Crudup - Chicago Blues
TTITLE18=Tampa Red - Love Me With A Feeling
TTITLE19=Big Bill Broonzy - Southbound Train
EXTD=
EXTT0=
EXTT1=
EXTT2=
EXTT3=
EXTT4=
EXTT5=
EXTT6=
EXTT7=
EXTT8=
EXTT9=
EXTT10=
EXTT11=
EXTT12=
EXTT13=
EXTT14=
EXTT15=
EXTT16=
EXTT17=
EXTT18=
EXTT19=
PLAYORDER=
